HIERARCHY
ROOT Hips
{
	OFFSET 0.000000 0.000000 0.000000
	CHANNELS 6 Xposition Yposition Zposition Yrotation Xrotation Zrotation
	JOINT Chest
	{
		OFFSET 0.000000 -0.009281 11.569106
		CHANNELS 3 Yrotation Xrotation Zrotation
		JOINT Chest2
		{
			OFFSET -0.000000 0.016865 9.269641
			CHANNELS 3 Yrotation Xrotation Zrotation
			JOINT Chest3
			{
				OFFSET -0.000000 0.000001 8.374491
				CHANNELS 3 Yrotation Xrotation Zrotation
				JOINT Chest4
				{
					OFFSET -0.000000 0.000001 8.374493
					CHANNELS 3 Yrotation Xrotation Zrotation
					JOINT Neck
					{
						OFFSET -0.000000 0.000002 12.152554
						CHANNELS 3 Yrotation Xrotation Zrotation
						JOINT Head
						{
							OFFSET -0.000000 0.040101 7.802319
							CHANNELS 3 Yrotation Xrotation Zrotation
							End Site
							{
								OFFSET -0.000000 0.020947 14.853096
							}
						}
					}
					JOINT RightCollar
					{
						OFFSET 2.894404 0.000001 6.791374
						CHANNELS 3 Yrotation Xrotation Zrotation
						JOINT RightShoulder
						{
							OFFSET 13.574684 0.000001 0.000000
							CHANNELS 3 Yrotation Xrotation Zrotation
							JOINT RightElbow
							{
								OFFSET 23.923903 0.000002 0.000000
								CHANNELS 3 Yrotation Xrotation Zrotation
								JOINT RightWrist
								{
									OFFSET 19.846718 0.012767 0.000000
									CHANNELS 3 Yrotation Xrotation Zrotation
									End Site
									{
										OFFSET 14.973145 0.000001 0.000000
									}
								}
							}
						}
					}
					JOINT LeftCollar
					{
						OFFSET -2.894404 0.000001 6.791374
						CHANNELS 3 Yrotation Xrotation Zrotation
						JOINT LeftShoulder
						{
							OFFSET -13.574684 -0.000001 0.000000
							CHANNELS 3 Yrotation Xrotation Zrotation
							JOINT LeftElbow
							{
								OFFSET -23.923903 -0.000002 0.000000
								CHANNELS 3 Yrotation Xrotation Zrotation
								JOINT LeftWrist
								{
									OFFSET -19.846718 0.012763 0.000000
									CHANNELS 3 Yrotation Xrotation Zrotation
									End Site
									{
										OFFSET -14.973145 -0.000001 0.000000
									}
								}
							}
						}
					}
				}
			}
		}
	}
	JOINT RightHip
	{
		OFFSET 9.469263 0.004643 0.045487
		CHANNELS 3 Yrotation Xrotation Zrotation
		JOINT RightKnee
		{
			OFFSET 0.000000 0.002661 -40.478676
			CHANNELS 3 Yrotation Xrotation Zrotation
			JOINT RightAnkle
			{
				OFFSET 0.000000 0.049106 -35.224068
				CHANNELS 3 Yrotation Xrotation Zrotation
				JOINT RightToe
				{
					OFFSET -0.000001 12.539529 -6.151390
					CHANNELS 3 Yrotation Xrotation Zrotation
					End Site
					{
						OFFSET -0.000001 5.044994 -1.291870
					}
				}
			}
		}
	}
	JOINT LeftHip
	{
		OFFSET -9.469263 0.004641 0.045487
		CHANNELS 3 Yrotation Xrotation Zrotation
		JOINT LeftKnee
		{
			OFFSET 0.000000 0.002661 -40.478676
			CHANNELS 3 Yrotation Xrotation Zrotation
			JOINT LeftAnkle
			{
				OFFSET 0.000000 0.049106 -35.224068
				CHANNELS 3 Yrotation Xrotation Zrotation
				JOINT LeftToe
				{
					OFFSET -0.000001 12.539529 -6.151390
					CHANNELS 3 Yrotation Xrotation Zrotation
					End Site
					{
						OFFSET -0.000001 5.044994 -1.291870
					}
				}
			}
		}
	}
}
MOTION
Frames: 15
Frame Time: 0.016667
30.867252 14.441878 82.396698 -3.915731 0.882307 -118.633146 -1.607230 -5.053277 3.279247 -0.526847 -2.086074 1.318040 -0.526847 -2.086074 1.318042 -0.390592 -1.565702 0.986621 0.375420 -12.788032 -2.540354 -0.340024 12.407992 -4.674932 9.734133 5.318585 -1.350592 42.465810 -15.050728 -13.978467 -26.437772 -60.869519 86.922046 -42.405451 39.599111 51.301626 -7.801102 5.104221 -6.733352 -40.542849 -10.795456 18.265589 -3.107911 -64.919459 -59.458176 30.518661 16.640936 -74.975390 -4.849590 6.517426 9.353434 -1.725383 -22.330486 2.353339 7.608347 12.145979 9.686985 -1.058621 0.492284 -0.063991 -0.923862 1.273335 -6.897236 3.998200 -1.603183 -11.446217 -5.513038 -1.322179 0.085392 0.650179 -1.358235 -0.948118 
31.057726 14.922462 82.312645 -3.809526 0.897782 -118.417763 -1.381224 -4.934509 3.042287 -0.550479 -2.159017 1.338351 -0.550479 -2.159017 1.338350 -0.408083 -1.620480 1.001699 0.389103 -12.664962 -2.550876 -0.323011 12.636645 -4.692791 9.582667 5.010551 -1.419669 42.574492 -14.945169 -13.657873 -26.762104 -60.767633 86.945665 -42.501487 39.783929 51.322007 -7.739336 5.011732 -6.771844 -40.581951 -10.832483 18.221847 -3.322607 -64.802267 -59.593653 30.729622 16.502632 -74.730664 -5.225870 6.789999 7.263783 -2.298878 -22.691645 4.064708 6.857520 11.608228 9.580431 -0.159702 1.139868 0.004372 -1.373468 1.635298 -7.214741 3.807926 -2.455113 -10.076130 -5.086678 -0.469693 0.280124 0.774408 -1.567857 -0.102757 
31.033010 15.266057 82.233124 -3.783837 0.968882 -118.328192 -1.238514 -4.861691 2.928680 -0.621561 -2.209860 1.356265 -0.621561 -2.209860 1.356265 -0.461208 -1.658787 1.014826 0.437133 -12.582447 -2.559315 -0.238222 12.791343 -4.691141 9.476970 4.816842 -1.366912 42.625657 -15.014706 -13.472679 -26.185851 -60.763842 86.311188 -42.621323 39.650863 51.178078 -7.770117 5.192143 -6.718990 -40.481083 -10.866366 18.307846 -3.138538 -64.809869 -60.052259 30.711345 16.443598 -74.714729 -5.500669 7.306444 6.396301 -2.412384 -23.612681 4.991355 5.594265 11.651059 8.852479 0.801325 1.433066 0.024924 -1.604566 1.851651 -6.992524 3.495253 -2.867606 -7.354562 -4.470289 -0.060174 -0.207139 0.632489 -1.675566 0.386267 
31.249737 15.596900 82.219589 -4.071267 1.098506 -118.396644 -1.374053 -4.999467 3.005320 -0.707843 -2.237041 1.356903 -0.707843 -2.237041 1.356903 -0.525849 -1.679365 1.014959 0.504950 -12.567206 -2.569528 -0.113940 12.821814 -4.682633 9.469458 4.955058 -1.388871 42.629816 -15.308225 -13.464350 -25.199010 -60.897092 85.475706 -42.699187 39.359652 50.974412 -7.835746 5.385431 -6.753564 -40.300606 -10.646709 18.460888 -2.827721 -64.938816 -60.389623 30.574707 16.497178 -75.021377 -5.949649 7.648020 6.484238 -1.677999 -24.765142 4.596859 3.739053 11.821166 7.613376 1.735100 1.582720 0.029347 -1.632599 1.556378 -5.795947 3.102737 -2.773167 -4.787032 -3.659987 0.414535 -0.214976 0.178896 -1.950223 0.463786 
31.215271 15.349491 82.235321 -4.335136 0.960787 -118.549217 -1.366949 -5.228588 3.220997 -0.765655 -2.235297 1.351755 -0.765655 -2.235296 1.351754 -0.569226 -1.678178 1.010891 0.563063 -12.610269 -2.601913 -0.015264 12.743085 -4.718842 9.527642 5.051089 -1.380370 42.632518 -15.311553 -13.563443 -24.339461 -61.069097 84.831434 -42.668677 39.099083 50.851991 -7.838211 5.433834 -6.775537 -40.175699 -10.446837 18.435826 -2.492962 -65.047436 -60.561361 30.423695 16.719320 -75.412030 -6.102701 7.849913 6.973119 0.407402 -25.846066 1.771127 1.316234 11.707063 6.640937 2.363580 1.690666 0.004448 -1.566598 1.017096 -3.496552 2.768144 -2.738064 -3.490716 -2.606678 1.167664 0.471584 -0.217317 -2.241849 0.642601 
31.724146 15.379843 82.284645 -4.607297 0.973274 -118.651464 -1.547723 -5.384684 3.418121 -0.780010 -2.214022 1.343459 -0.780010 -2.214021 1.343460 -0.580068 -1.662243 1.004642 0.593150 -12.702339 -2.655844 0.022881 12.571843 -4.806487 9.611481 5.126084 -1.327141 42.694082 -15.072009 -13.774199 -24.101443 -61.149966 84.651753 -42.559114 39.007248 50.871164 -7.843607 5.472259 -6.712892 -40.143016 -10.596817 18.296103 -2.322428 -65.052299 -60.530216 30.292934 17.060730 -75.621655 -6.428848 7.748693 6.750755 2.628803 -26.464582 -3.147837 -0.648730 11.381067 6.629578 2.697315 1.860001 0.013156 -1.317054 0.643190 -0.592112 2.442224 -2.832247 -2.573249 -1.634812 1.503614 1.682443 -0.739085 -2.072457 0.321729 
32.077877 15.104289 82.346542 -4.618443 0.942521 -118.530147 -1.536682 -5.303211 3.384443 -0.761459 -2.179912 1.324448 -0.761459 -2.179912 1.324456 -0.566302 -1.636596 0.990506 0.593900 -12.834522 -2.709468 0.006983 12.325083 -4.904590 9.668692 5.217618 -1.277562 42.825098 -14.819694 -14.020833 -24.543837 -61.096493 84.904155 -42.455090 39.099070 50.989561 -7.908755 5.526203 -6.633451 -40.161601 -10.964497 18.236648 -2.541679 -65.028817 -60.219592 30.273447 17.400914 -75.584506 -6.521475 7.497082 5.134971 4.618437 -26.403385 -8.395088 -2.389343 10.763787 6.598608 2.726175 2.064064 0.020922 -1.107287 0.279825 2.322958 2.258634 -2.851580 -1.222137 -0.893881 1.876918 2.146250 -0.954704 -1.885953 0.378429 
32.671890 14.780380 82.411583 -4.704000 0.900243 -118.455629 -1.534687 -5.265270 3.364105 -0.726213 -2.137627 1.290697 -0.726213 -2.137627 1.290702 -0.540083 -1.604764 0.965378 0.571829 -12.976664 -2.746206 -0.044700 12.059426 -4.979596 9.659302 5.262665 -1.289368 42.955073 -14.709793 -14.127825 -25.235406 -60.964103 85.264851 -42.370672 39.274674 51.122197 -7.998184 5.490360 -6.623338 -40.178458 -11.157713 18.345338 -3.197661 -65.090050 -59.652789 30.371874 17.570385 -75.392455 -6.708952 6.924255 2.195655 6.255695 -25.737324 -12.704225 -3.996773 10.048200 5.947018 2.545192 2.135219 0.051204 -0.692427 -0.260538 5.343872 2.070456 -2.794971 0.230771 -0.471911 2.039497 2.737057 -1.117216 -1.537682 0.241161 
33.316269 14.379976 82.464844 -4.513826 1.065943 -118.100323 -1.536622 -4.908533 2.999411 -0.691106 -2.099771 1.244752 -0.691107 -2.099771 1.244754 -0.513995 -1.576245 0.931084 0.533320 -13.081885 -2.758424 -0.118731 11.862306 -5.015663 9.616748 5.308945 -1.287188 42.972275 -14.760744 -14.082023 -25.604146 -60.896341 85.359681 -42.302271 39.394417 51.218253 -8.066189 5.477299 -6.599751 -40.223377 -11.144729 18.589821 -3.972214 -65.253367 -59.053153 30.545856 17.595484 -75.171915 -6.878640 6.400885 -2.172680 7.291549 -24.478819 -16.047946 -5.421918 9.226771 4.953149 3.261794 3.348554 0.113877 -0.494252 -0.570422 7.819654 1.873491 -2.699859 1.533805 -0.091338 2.062249 3.527468 -1.168096 -1.056496 0.092343 
34.194420 14.047238 82.504601 -4.539428 1.065104 -118.044588 -1.517903 -4.855963 2.888769 -0.674459 -2.080654 1.208171 -0.674458 -2.080654 1.208176 -0.501676 -1.561834 0.903738 0.504611 -13.120786 -2.767699 -0.175448 11.788735 -5.043907 9.579112 5.409855 -1.286080 42.848826 -14.930416 -13.939534 -25.541759 -60.959787 85.205961 -42.284475 39.385442 51.220774 -8.053460 5.463839 -6.562873 -40.334480 -10.988842 18.826855 -4.445661 -65.393809 -58.709526 30.672583 17.612042 -75.022805 -6.810977 5.496424 -6.688534 7.716433 -23.014379 -18.862018 -6.484071 8.567494 4.058240 3.913541 4.179680 0.162783 -0.242631 -1.327846 10.033050 1.634022 -2.559967 2.577084 0.095293 2.165771 4.464951 -1.136766 -0.616632 0.031934 
35.128517 13.852839 82.520790 -4.561842 1.128094 -118.107713 -1.569231 -4.803465 2.836072 -0.688362 -2.080588 1.202701 -0.688363 -2.080588 1.202701 -0.512122 -1.561804 0.899583 0.511610 -13.095899 -2.791988 -0.173076 11.834496 -5.087831 9.540072 5.448243 -1.336142 42.674971 -15.121552 -13.666076 -25.176825 -61.124599 84.919489 -42.323506 39.265805 51.140065 -7.990486 5.431360 -6.556547 -40.441622 -10.809758 19.007339 -4.489607 -65.411820 -58.729341 30.714008 17.708959 -74.985143 -6.714670 4.657415 -10.982660 7.643595 -21.599874 -20.882598 -7.249976 8.077446 3.152906 4.625705 4.674530 0.216185 -0.273144 -2.055695 11.480551 1.380255 -2.485541 3.458515 0.316637 2.223596 5.583746 -1.050305 -0.119369 -0.016118 
36.051144 13.825474 82.509453 -4.583410 1.208070 -118.294737 -1.643741 -4.786315 2.837465 -0.735806 -2.088688 1.241144 -0.735807 -2.088689 1.241144 -0.547553 -1.568022 0.928240 0.558399 -13.009481 -2.837228 -0.106272 11.995432 -5.157000 9.466855 5.337937 -1.417670 42.604237 -15.231153 -13.289970 -24.825270 -61.316575 84.689414 -42.391019 39.115349 51.049527 -7.928000 5.454786 -6.581968 -40.446929 -10.712456 19.127291 -4.372691 -65.327146 -58.895266 30.609660 17.867316 -75.129164 -6.519584 3.852692 -14.492557 5.777489 -21.040627 -21.778799 -6.692450 8.214563 4.352874 4.291406 3.649048 0.182762 -0.473658 -2.706459 12.036471 1.239372 -2.304164 4.278780 0.248351 1.591735 6.786976 -0.824208 0.767694 -0.046659 
36.956982 14.019866 82.643410 -4.416214 1.214715 -118.590034 -1.514797 -4.681695 2.931004 -0.809212 -2.103025 1.272656 -0.809213 -2.103024 1.272656 -0.602463 -1.578965 0.951602 0.605068 -12.936840 -2.878627 -0.037590 12.130899 -5.218500 9.446054 5.208582 -1.400366 42.623823 -15.336631 -12.960587 -24.352281 -61.533379 84.359503 -42.570971 39.010759 50.852015 -8.000405 5.684740 -6.552235 -40.266062 -10.744150 19.216274 -4.223762 -65.262430 -59.009310 30.486426 18.089908 -75.518082 -6.489834 3.819921 -15.280462 4.416106 -21.511225 -15.526369 -6.097180 8.481426 -1.863606 3.393457 2.301445 0.092550 -0.454881 -2.742956 11.736078 0.647289 -3.058202 5.131701 0.262840 1.454670 7.547210 -0.415129 1.603873 -0.062560 
36.984329 14.492265 82.726028 -4.018555 1.662600 -119.179889 -1.785263 -4.262219 3.353942 -0.840808 -2.052830 1.335139 -0.840809 -2.052831 1.335136 -0.626056 -1.541472 0.998422 0.648098 -12.823648 -2.957822 0.006915 12.340414 -5.354506 9.491393 4.958447 -1.370898 42.685920 -15.329589 -12.752711 -23.564320 -61.685802 83.824193 -42.649883 39.061077 50.765238 -7.867913 5.504184 -6.609407 -40.148497 -10.514429 18.981651 -3.608552 -65.174471 -59.430466 30.319807 18.104811 -75.758225 -8.051453 4.199213 -13.487341 6.232707 -21.357754 -11.619176 -5.809554 8.404853 -7.633721 1.942840 1.390361 0.256325 -0.812799 -1.873083 11.515909 0.255281 -3.539784 5.489378 0.854793 1.113081 8.534632 -0.471845 1.784315 -0.090803 
37.063274 15.155734 82.788910 -3.112467 2.005933 -120.158505 -1.770223 -3.362106 4.166946 -0.795881 -2.007568 1.388428 -0.795881 -2.007569 1.388432 -0.592291 -1.507497 1.038603 0.621078 -12.811855 -3.015751 -0.068856 12.359485 -5.476170 9.645479 5.089506 -1.296501 42.774835 -15.627249 -13.024354 -23.133702 -61.652429 83.515079 -42.830395 39.436676 50.734078 -7.889933 5.712076 -6.517990 -40.099214 -10.655612 18.793774 -3.262728 -65.121776 -59.463265 30.025454 17.824582 -75.714600 -8.408820 5.437186 -11.320877 7.341764 -20.690752 -13.200610 -5.563510 8.005768 -8.135778 1.271547 0.962655 0.812171 -0.932828 -0.577563 11.400993 -0.081559 -4.137600 6.207001 1.573013 1.316390 9.090854 -0.548701 1.515839 -0.052392 
